# xmcd
#
# Track frame offsets: 
#        150
#        18743
#        36366
#        53950
#        69601
#        94880
#        110760
#        128154
#        142015
#        164903
#        186493
#        199691
#        217061
#        233497
#        258160
#        279417
#        296436
#        314157
#        329208
#
# Disc length: 4632 seconds
#
# Revision: 0
# Processed by: cddbd v1.5.1PL0 Copyright (c) Steve Scherf et al.
# Submitted via: ExactAudioCopy v0.95a3
#
DISCID=40121613
DTITLE=Various Artist - Hit Courier RadioPress Сентябрь (1) 2001
DYEAR=2001
DGENRE=Pop
TTITLE0=Никола Зимний - Перелистывая Страницы
TTITLE1=Мийя - Лети
TTITLE2=Адам И Ева - Облако Печали
TTITLE3=Катя Бочарова - Спортивная
TTITLE4=Рондо - Круги На Воде
TTITLE5=Кэт - Метро
TTITLE6=Loris - Жди Меня
TTITLE7=Плохой Пример - Блюз Бродячей Собаки
TTITLE8=2+2 - Опустевший Бульвар
TTITLE9=Оркестр Палата №6 - Дым Без Огня
TTITLE10=Катя Бочарова - Мотороллер
TTITLE11=Рондо - Сумашедшая Девочка
TTITLE12=Варвара - Сердце Моё Не Плачь
TTITLE13=Сергей Орлов - Курортный Роман
TTITLE14=Алексин - Шалавы
TTITLE15=Овация - Прощай
TTITLE16=Оркестр Палата №6 - Море Синее
TTITLE17=Табу - Глупый Праздник
TTITLE18=Диамант - Не Нужна
EXTD=
EXTT0=
EXTT1=
EXTT2=
EXTT3=
EXTT4=
EXTT5=
EXTT6=
EXTT7=
EXTT8=
EXTT9=
EXTT10=
EXTT11=
EXTT12=
EXTT13=
EXTT14=
EXTT15=
EXTT16=
EXTT17=
EXTT18=
PLAYORDER=
